<svg xmlns="http://www.w3.org/2000/svg" style="display:none"><defs>
<symbol id="i-arrow" viewBox="0 0 24 24" fill="none" stroke="currentColor" stroke-width="1.5" stroke-linecap="square" stroke-linejoin="miter"><path d="M5 12h14M13 5l7 7-7 7"></path></symbol>
<symbol id="i-close" viewBox="0 0 24 24" fill="none" stroke="currentColor" stroke-width="1.5" stroke-linecap="square"><path d="M5 5l14 14M19 5L5 19"></path></symbol>
<symbol id="i-menu" viewBox="0 0 24 24" fill="none" stroke="currentColor" stroke-width="1.5" stroke-linecap="square"><path d="M3 7h18M3 12h18M3 17h18"></path></symbol>
<symbol id="i-search" viewBox="0 0 24 24" fill="none" stroke="currentColor" stroke-width="1.5" stroke-linecap="square"><circle cx="11" cy="11" r="6"></circle><path d="M20 20l-4.5-4.5"></path></symbol>
<symbol id="i-plus" viewBox="0 0 24 24" fill="none" stroke="currentColor" stroke-width="1.5" stroke-linecap="square"><path d="M12 5v14M5 12h14"></path></symbol>
<symbol id="i-minus" viewBox="0 0 24 24" fill="none" stroke="currentColor" stroke-width="1.5" stroke-linecap="square"><path d="M5 12h14"></path></symbol>
<symbol id="i-external" viewBox="0 0 24 24" fill="none" stroke="currentColor" stroke-width="1.5" stroke-linecap="square"><path d="M14 4h6v6M20 4l-9 9M19 14v6H4V5h6"></path></symbol>
<symbol id="i-mail" viewBox="0 0 24 24" fill="none" stroke="currentColor" stroke-width="1.5" stroke-linecap="square"><rect x="3" y="5" width="18" height="14"></rect><path d="M3 6l9 7 9-7"></path></symbol>
<symbol id="i-instagram" viewBox="0 0 24 24" fill="none" stroke="currentColor" stroke-width="1.5"><rect x="3.5" y="3.5" width="17" height="17" rx="4"></rect><circle cx="12" cy="12" r="4"></circle><circle cx="17" cy="7" r="0.6" fill="currentColor"></circle></symbol>
<symbol id="i-linkedin" viewBox="0 0 24 24" fill="currentColor"><path d="M4.5 4.5h3v15h-3zM6 2.8a1.7 1.7 0 110 3.4 1.7 1.7 0 010-3.4zM10 9h2.8v2c.6-1 2-2.3 4.2-2.3 3 0 4 2 4 4.6v6.2h-3v-5.5c0-1.6-.6-2.7-2-2.7-1.5 0-2.2 1-2.2 2.7v5.5h-3z"></path></symbol>
<symbol id="i-vimeo" viewBox="0 0 24 24" fill="none" stroke="currentColor" stroke-width="1.5" stroke-linecap="square"><path d="M3 7c2-1 4-1.5 5 .5 1 2 2 8 3 8s4-5 5-8-1-3-3-2"></path></symbol>
<symbol id="i-play" viewBox="0 0 24 24" fill="currentColor"><path d="M7 5l12 7-12 7z"></path></symbol>
<symbol id="i-down" viewBox="0 0 24 24" fill="none" stroke="currentColor" stroke-width="1.5" stroke-linecap="square"><path d="M6 9l6 6 6-6"></path></symbol>
</defs></svg>